<svg id="bootstrap" xmlns="http://www.w3.org/2000/svg" width="90.353" height="72" viewBox="0 0 90.353 72">
  <path id="Path_7" data-name="Path 7" d="M9.967,9.409A9,9,0,0,1,18.766,0H71.593a9,9,0,0,1,8.8,9.409c-.164,4.7.049,10.794,1.582,15.761,1.538,4.982,4.131,8.131,8.379,8.536v4.588c-4.247.4-6.841,3.554-8.379,8.536-1.533,4.967-1.746,11.058-1.582,15.761A9,9,0,0,1,71.593,72H18.766a9,9,0,0,1-8.8-9.409c.164-4.7-.049-10.794-1.582-15.761C6.847,41.848,4.248,38.7,0,38.294V33.706c4.247-.4,6.847-3.554,8.385-8.536C9.918,20.2,10.131,14.112,9.967,9.409Z" fill="#7e12f9"/>
  <path id="Path_8" data-name="Path 8" d="M193.643,133.751c8.347,0,13.376-4.087,13.376-10.827,0-5.1-3.589-8.784-8.917-9.368v-.212a8.556,8.556,0,0,0,6.987-8.333c0-5.785-4.567-9.554-11.527-9.554H177.9v38.294Zm-9.652-33.438h8.1c4.4,0,6.905,1.964,6.905,5.52,0,3.8-2.909,5.918-8.183,5.918h-6.824Zm0,28.581V116.289h8.047c5.764,0,8.754,2.123,8.754,6.263s-2.909,6.343-8.4,6.343Z" transform="translate(-146.507 -78.612)" fill="#fff" stroke="#fff" stroke-width="1"/>
</svg>
