<svg xmlns="http://www.w3.org/2000/svg" width="73.241" height="71.434" viewBox="0 0 73.241 71.434">
  <path id="github" d="M36.621,0A36.622,36.622,0,0,0,25.039,71.364c1.831.32,2.518-.778,2.518-1.739,0-.87-.046-3.754-.046-6.821C18.31,64.5,15.93,60.561,15.2,58.5c-.412-1.053-2.2-4.3-3.754-5.173-1.282-.687-3.113-2.38-.046-2.426,2.884-.046,4.944,2.655,5.63,3.754,3.3,5.539,8.56,3.982,10.666,3.021a7.7,7.7,0,0,1,2.335-4.9c-8.148-.916-16.662-4.074-16.662-18.081a14.252,14.252,0,0,1,3.754-9.842,13.159,13.159,0,0,1,.366-9.7s3.067-.961,10.071,3.754a34.526,34.526,0,0,1,18.31,0c7-4.761,10.071-3.754,10.071-3.754a13.159,13.159,0,0,1,.366,9.7A14.169,14.169,0,0,1,60.058,34.7c0,14.053-8.56,17.166-16.708,18.081,1.327,1.144,2.472,3.342,2.472,6.775,0,4.9-.046,8.835-.046,10.071,0,.961.687,2.106,2.518,1.739A36.64,36.64,0,0,0,36.621,0Z" fill="#1b1f23" fill-rule="evenodd"/>
</svg>
