<svg id="Group_22" data-name="Group 22" xmlns="http://www.w3.org/2000/svg" width="84.051" height="95.311" viewBox="0 0 84.051 95.311">
  <path id="Path_3" data-name="Path 3" d="M82.245,186.412,74.6,100.6h84.051l-7.645,85.766-34.45,9.545" transform="translate(-74.6 -100.6)" fill="#e44d26"/>
  <path id="Path_4" data-name="Path 4" d="M256,211.97V131h34.357L283.8,204.209" transform="translate(-213.974 -123.957)" fill="#f16529"/>
  <path id="Path_5" data-name="Path 5" d="M142,176.3h26.411v10.518H153.537l.973,10.773h13.9v10.495H144.873m.463,5.282H155.9l.741,8.41,11.769,3.151V235.91l-21.592-6.023" transform="translate(-126.385 -158.762)" fill="#ebebeb"/>
  <path id="Path_6" data-name="Path 6" d="M282.164,176.3H255.8v10.518h25.391m-.95,10.773H255.8v10.518h12.974l-1.228,13.669L255.8,224.928v10.935l21.546-5.977" transform="translate(-213.821 -158.762)" fill="#fff"/>
</svg>
