<svg xmlns="http://www.w3.org/2000/svg" width="88.837" height="88.837" viewBox="0 0 88.837 88.837">
  <g id="Group_19" data-name="Group 19" transform="translate(0.232 -0.157)">
    <rect id="Rectangle_24" data-name="Rectangle 24" width="88.837" height="88.837" transform="translate(-0.232 0.157)" fill="#f7df1e"/>
    <path id="Path_14" data-name="Path 14" d="M201.88,314.752c1.775,2.9,4.085,5.03,8.17,5.03,3.432,0,5.624-1.715,5.624-4.085,0-2.84-2.252-3.846-6.03-5.5l-2.071-.888c-5.977-2.546-9.947-5.736-9.947-12.479,0-6.212,4.733-10.94,12.13-10.94,5.266,0,9.052,1.833,11.78,6.631l-6.45,4.141c-1.42-2.546-2.952-3.549-5.33-3.549-2.426,0-3.963,1.539-3.963,3.549,0,2.485,1.539,3.491,5.092,5.03l2.071.887c7.037,3.018,11.01,6.094,11.01,13.011,0,7.457-5.858,11.542-13.725,11.542-7.692,0-12.661-3.665-15.093-8.47Zm-29.258.718c1.3,2.308,2.485,4.26,5.33,4.26,2.721,0,4.438-1.065,4.438-5.2V286.363h8.282v28.275c0,8.576-5.028,12.479-12.367,12.479-6.631,0-10.472-3.432-12.425-7.565Z" transform="translate(-142.619 -245.93)"/>
  </g>
</svg>
