<svg id="g3438" xmlns="http://www.w3.org/2000/svg" xmlns:xlink="http://www.w3.org/1999/xlink" width="126.994" height="71.434" viewBox="0 0 126.994 71.434">
  <defs>
    <clipPath id="clip-path">
      <path id="path3446" d="M14.4-352.233c0,17.709,27.292,32.066,60.957,32.066h0c33.665,0,60.958-14.357,60.958-32.066h0c0-17.709-27.292-32.066-60.958-32.066h0c-33.665,0-60.957,14.357-60.957,32.066" transform="translate(-14.4 384.299)"/>
    </clipPath>
    <radialGradient id="radial-gradient" cx="0.628" cy="0.8" r="1.248" gradientTransform="translate(-0.009 0.511) scale(0.526 1)" gradientUnits="objectBoundingBox">
      <stop offset="0" stop-color="#aeb2d5"/>
      <stop offset="0.3" stop-color="#aeb2d5"/>
      <stop offset="0.75" stop-color="#484c89"/>
      <stop offset="1" stop-color="#484c89"/>
    </radialGradient>
    <clipPath id="clip-path-2">
      <path id="path3470" d="M0-405H126.994v71.434H0Z" transform="translate(0 405)"/>
    </clipPath>
  </defs>
  <g id="g3440" transform="translate(2.54 3.651)">
    <g id="g3442" clip-path="url(#clip-path)">
      <g id="g3448">
        <g id="g3450">
          <path id="path3462" d="M14.4-352.233c0,17.709,27.292,32.066,60.957,32.066h0c33.665,0,60.958-14.357,60.958-32.066h0c0-17.709-27.292-32.066-60.958-32.066h0c-33.665,0-60.957,14.357-60.957,32.066" transform="translate(-14.4 384.299)" fill="url(#radial-gradient)"/>
        </g>
      </g>
    </g>
  </g>
  <g id="g3464" transform="translate(0 0)">
    <g id="g3466" clip-path="url(#clip-path-2)">
      <g id="g3472" transform="translate(4.921 6.032)">
        <path id="path3474" d="M-273.524-277.232c32.35,0,58.576-13.291,58.576-29.685S-241.174-336.6-273.524-336.6-332.1-323.312-332.1-306.917s26.226,29.685,58.576,29.685" transform="translate(332.1 336.603)" fill="#777bb3"/>
      </g>
    </g>
  </g>
  <g id="g3476" transform="translate(0 0)">
    <g id="g3478" clip-path="url(#clip-path-2)">
      <g id="g3484" transform="translate(21.093 20.878)">
        <path id="path3486" d="M-68.013-86.48c2.66,0,4.646-.491,5.9-1.458a7.888,7.888,0,0,0,2.552-4.928c.42-2.162.26-3.672-.475-4.486-.751-.832-2.375-1.254-4.827-1.254h-4.251L-71.468-86.48Zm-13.9,14.937a.661.661,0,0,1-.51-.241.661.661,0,0,1-.139-.547l6.246-32.135a.662.662,0,0,1,.649-.535H-62.21c4.231,0,7.379,1.149,9.359,3.415s2.6,5.462,1.826,9.463a15.1,15.1,0,0,1-1.619,4.5,15.066,15.066,0,0,1-2.979,3.733,13.068,13.068,0,0,1-4.9,2.938,22.207,22.207,0,0,1-6.735.866H-72.71l-1.557,8.008a.661.661,0,0,1-.649.535Z" transform="translate(82.578 105)"/>
      </g>
      <g id="g3488" transform="translate(20.432 20.216)">
        <path id="path3490" d="M-68.516-36.033h3.706c2.959,0,3.987.649,4.336,1.036.579.642.689,2,.316,3.917a7.272,7.272,0,0,1-2.306,4.53c-1.138.876-2.988,1.32-5.5,1.32h-2.653Zm6.357-7.717H-75.621a1.323,1.323,0,0,0-1.3,1.07l-6.246,32.135a1.323,1.323,0,0,0,.278,1.094,1.323,1.323,0,0,0,1.021.481h7a1.323,1.323,0,0,0,1.3-1.07l1.453-7.473h4.905a22.853,22.853,0,0,0,6.94-.9A13.729,13.729,0,0,0-55.12-21.5a15.734,15.734,0,0,0,3.1-3.893,15.764,15.764,0,0,0,1.691-4.7c.819-4.212.154-7.585-1.977-10.024-2.11-2.416-5.427-3.641-9.857-3.641M-72.221-23.907h4.258q4.233,0,6.306-1.595a8.47,8.47,0,0,0,2.8-5.326q.695-3.582-.633-5.055t-5.318-1.473h-4.8l-2.614,13.449m10.061-18.52q6.074,0,8.861,3.188t1.675,8.9a14.388,14.388,0,0,1-1.547,4.3,14.351,14.351,0,0,1-2.849,3.568,12.364,12.364,0,0,1-4.659,2.8,21.458,21.458,0,0,1-6.531.834h-6l-1.66,8.543h-7l6.246-32.134H-62.16" transform="translate(83.189 43.75)" fill="#fff"/>
      </g>
      <g id="g3492" transform="translate(50.893 12.334)">
        <path id="path3494" d="M-83.134-156.23a.66.66,0,0,1-.51-.241.66.66,0,0,1-.139-.547l2.763-14.218c.263-1.352.2-2.323-.182-2.733-.233-.251-.932-.671-3-.671h-5.005l-3.474,17.874a.662.662,0,0,1-.649.535h-6.945a.661.661,0,0,1-.51-.241.661.661,0,0,1-.139-.547l6.246-32.135a.662.662,0,0,1,.649-.535h6.945a.662.662,0,0,1,.51.241.662.662,0,0,1,.139.547l-1.507,7.756h5.384c4.1,0,6.883.723,8.5,2.211,1.651,1.518,2.167,3.945,1.532,7.214l-2.906,14.954a.661.661,0,0,1-.649.535Z" transform="translate(100.938 189.688)"/>
      </g>
      <g id="g3496" transform="translate(50.232 11.673)">
        <path id="path3498" d="M-67.772,0h-6.945a1.323,1.323,0,0,0-1.3,1.07l-6.246,32.135a1.323,1.323,0,0,0,.278,1.094,1.323,1.323,0,0,0,1.021.481h6.945a1.323,1.323,0,0,0,1.3-1.07l3.37-17.339h4.46c2.064,0,2.5.441,2.515.46.125.135.29.759.018,2.156l-2.763,14.218a1.323,1.323,0,0,0,.278,1.094,1.323,1.323,0,0,0,1.021.481h7.055a1.323,1.323,0,0,0,1.3-1.07l2.906-14.954c.682-3.51.1-6.143-1.733-7.827-1.748-1.605-4.676-2.386-8.951-2.386h-4.582l1.354-6.968A1.323,1.323,0,0,0-66.751.482,1.323,1.323,0,0,0-67.772,0m0,1.323-1.66,8.543h6.187q5.839,0,8.056,2.037t1.33,6.6l-2.906,14.954H-63.82l2.763-14.218q.472-2.426-.347-3.309t-3.485-.883H-70.44l-3.577,18.41h-6.945l6.246-32.134h6.945" transform="translate(82.285)" fill="#fff"/>
      </g>
      <g id="g3500" transform="translate(75.731 20.878)">
        <path id="path3502" d="M-68.012-86.48c2.66,0,4.646-.491,5.9-1.458a7.888,7.888,0,0,0,2.552-4.928c.42-2.162.26-3.672-.475-4.486-.751-.832-2.375-1.254-4.827-1.254h-4.251L-71.468-86.48Zm-13.9,14.937a.661.661,0,0,1-.51-.241.661.661,0,0,1-.139-.547l6.246-32.135a.662.662,0,0,1,.65-.535H-62.21c4.231,0,7.379,1.149,9.359,3.415s2.6,5.461,1.826,9.463a15.117,15.117,0,0,1-1.619,4.5,15.066,15.066,0,0,1-2.979,3.733,13.068,13.068,0,0,1-4.9,2.938,22.207,22.207,0,0,1-6.735.866h-5.451l-1.556,8.008a.662.662,0,0,1-.65.535Z" transform="translate(82.578 105)"/>
      </g>
      <g id="g3504" transform="translate(75.07 20.216)">
        <path id="path3506" d="M-68.515-36.033h3.706c2.959,0,3.987.649,4.336,1.036.58.642.689,2,.316,3.917a7.273,7.273,0,0,1-2.306,4.53c-1.138.876-2.988,1.32-5.5,1.32h-2.653Zm6.357-7.717H-75.62a1.323,1.323,0,0,0-1.3,1.07l-6.246,32.135a1.323,1.323,0,0,0,.278,1.094,1.323,1.323,0,0,0,1.021.481h7a1.323,1.323,0,0,0,1.3-1.07l1.452-7.473h4.905a22.853,22.853,0,0,0,6.94-.9A13.729,13.729,0,0,0-55.119-21.5a15.726,15.726,0,0,0,3.1-3.893,15.764,15.764,0,0,0,1.691-4.7c.819-4.212.154-7.585-1.977-10.024-2.11-2.416-5.427-3.641-9.857-3.641M-72.219-23.907h4.258q4.233,0,6.306-1.595a8.469,8.469,0,0,0,2.8-5.326q.7-3.582-.633-5.055t-5.318-1.473h-4.8l-2.614,13.449m10.061-18.52q6.074,0,8.861,3.188t1.675,8.9a14.388,14.388,0,0,1-1.547,4.3,14.351,14.351,0,0,1-2.849,3.568,12.364,12.364,0,0,1-4.659,2.8,21.458,21.458,0,0,1-6.531.834h-6l-1.66,8.543h-7l6.246-32.134h13.461" transform="translate(83.188 43.75)" fill="#fff"/>
      </g>
    </g>
  </g>
</svg>
