<svg id="python" xmlns="http://www.w3.org/2000/svg" xmlns:xlink="http://www.w3.org/1999/xlink" width="70.654" height="71.434" viewBox="0 0 70.654 71.434">
  <defs>
    <linearGradient id="linear-gradient" x1="0.324" y1="0.248" x2="1.649" y2="1.377" gradientUnits="objectBoundingBox">
      <stop offset="0" stop-color="#5a9fd4"/>
      <stop offset="1" stop-color="#306998"/>
    </linearGradient>
    <linearGradient id="linear-gradient-2" x1="1.483" y1="1.955" x2="1.011" y2="1.297" gradientUnits="objectBoundingBox">
      <stop offset="0" stop-color="#ffd43b"/>
      <stop offset="1" stop-color="#ffe873"/>
    </linearGradient>
  </defs>
  <path id="path1948" d="M34.906,0a48.661,48.661,0,0,0-8.144.7c-7.212,1.274-8.521,3.941-8.521,8.859v6.5H35.284v2.165H11.846A10.641,10.641,0,0,0,1.2,26.855a31.855,31.855,0,0,0,0,17.32c1.211,5.045,4.1,8.64,9.057,8.64h5.859V45.029A10.83,10.83,0,0,1,26.763,34.442H43.785a8.586,8.586,0,0,0,8.521-8.66V9.554c0-4.618-3.9-8.088-8.521-8.859A53.15,53.15,0,0,0,34.906,0ZM25.69,5.224a3.248,3.248,0,1,1-3.2,3.257A3.233,3.233,0,0,1,25.69,5.224Z" transform="translate(0 0)" fill="url(#linear-gradient)"/>
  <path id="path1950" d="M64.889,28.657v7.568A10.93,10.93,0,0,1,54.243,47.03H37.221A8.694,8.694,0,0,0,28.7,55.69V71.918c0,4.618,4.016,7.335,8.521,8.66a28.513,28.513,0,0,0,17.022,0c4.29-1.242,8.521-3.742,8.521-8.66v-6.5H45.742V63.258H71.285c4.953,0,6.8-3.455,8.521-8.64,1.779-5.338,1.7-10.472,0-17.32-1.224-4.931-3.562-8.64-8.521-8.64Zm-9.574,41.1a3.248,3.248,0,1,1-3.2,3.238A3.216,3.216,0,0,1,55.316,69.753Z" transform="translate(-10.458 -10.443)" fill="url(#linear-gradient-2)"/>
</svg>
