<svg xmlns="http://www.w3.org/2000/svg" width="96.054" height="72" viewBox="0 0 96.054 72">
  <path id="sass" d="M82.573,41.585a19.789,19.789,0,0,0-8.706,2.026,17.912,17.912,0,0,1-1.951-4.5,12.454,12.454,0,0,1-.169-3.79,30.394,30.394,0,0,1,1.145-4.09c-.019-.169-.206-.994-2.139-1.013s-3.6.375-3.79.882a21.546,21.546,0,0,0-.807,2.871c-.338,1.764-3.865,8.011-5.873,11.295a11.517,11.517,0,0,1-1.332-3.3,12.454,12.454,0,0,1-.169-3.79,30.394,30.394,0,0,1,1.144-4.09c-.019-.169-.206-.994-2.139-1.013s-3.6.375-3.79.882-.394,1.707-.807,2.871c-.394,1.163-5.085,11.6-6.3,14.316-.619,1.388-1.163,2.5-1.557,3.246s-.019.056-.056.131c-.338.638-.525.994-.525.994v.019c-.263.469-.544.919-.675.919a6.258,6.258,0,0,1,.038-2.983c.694-3.621,2.383-9.269,2.364-9.475,0-.094.319-1.088-1.088-1.595a1.71,1.71,0,0,0-1.97.338c-.113,0-.206.3-.206.3s1.52-6.36-2.908-6.36c-2.777,0-6.6,3.021-8.5,5.779-1.2.657-3.752,2.045-6.454,3.527-1.032.563-2.1,1.163-3.115,1.707l-.206-.225C16.661,41.735,6.736,37.683,7.148,29.99c.15-2.8,1.126-10.169,19.062-19.1,14.691-7.317,26.455-5.31,28.5-.844,2.908,6.379-6.285,18.237-21.558,19.944-5.816.657-8.875-1.595-9.644-2.439-.807-.882-.919-.919-1.22-.75-.488.263-.188,1.051,0,1.52.45,1.182,2.327,3.283,5.516,4.334,2.8.919,9.625,1.426,17.88-1.764,9.25-3.584,16.473-13.528,14.353-21.839C57.882.59,43.847-2.187,30.582,2.522c-7.9,2.814-16.455,7.2-22.609,12.965C.657,22.316-.507,28.283-.019,30.759c1.707,8.837,13.884,14.6,18.762,18.856-.244.131-.469.263-.675.375-2.439,1.2-11.726,6.06-14.053,11.2-2.627,5.816.413,10,2.439,10.563,6.267,1.745,12.683-1.388,16.154-6.548,3.452-5.16,3.039-11.858,1.445-14.916L24,50.178l1.914-1.126c1.238-.732,2.458-1.407,3.527-1.989a23.359,23.359,0,0,0-1.257,6.379c-.263,3.3,1.088,7.58,2.871,9.269a3.175,3.175,0,0,0,2.308.75c2.064,0,3-1.707,4.034-3.752,1.276-2.5,2.4-5.385,2.4-5.385s-1.407,7.824,2.439,7.824c1.407,0,2.814-1.82,3.452-2.758v.019s.038-.056.113-.188c.15-.225.225-.356.225-.356v-.038c.563-.976,1.82-3.208,3.7-6.9,2.42-4.766,4.747-10.732,4.747-10.732a34.246,34.246,0,0,0,.919,3.865,37.03,37.03,0,0,0,2.008,4.5c-.563.788-.9,1.238-.9,1.238l.019.019c-.45.6-.957,1.238-1.482,1.876-1.914,2.289-4.2,4.9-4.5,5.647a1.546,1.546,0,0,0,.413,2.064,3.754,3.754,0,0,0,2.364.375,10.532,10.532,0,0,0,3.527-.807,12.216,12.216,0,0,0,3.039-1.595,6.767,6.767,0,0,0,2.908-5.985,12.034,12.034,0,0,0-1.107-4.222c.169-.244.338-.488.507-.75a79.183,79.183,0,0,0,5.253-9.1,34.245,34.245,0,0,0,.919,3.865,27.116,27.116,0,0,0,1.707,3.865,16.68,16.68,0,0,0-5.122,6.623c-1.107,3.19-.244,4.634,1.388,4.972a5,5,0,0,0,2.57-.525,11.639,11.639,0,0,0,3.246-1.67c1.876-1.388,3.677-3.321,3.584-5.929a11.366,11.366,0,0,0-.807-3.509,18.279,18.279,0,0,1,9.306-1.069c8.349.976,10,6.192,9.681,8.368a5.606,5.606,0,0,1-2.645,3.752c-.582.356-.769.488-.713.75.075.394.338.375.844.3a6.494,6.494,0,0,0,4.54-5.8c.225-5.16-4.672-10.788-13.359-10.732ZM18.181,63.293c-2.758,3.021-6.642,4.165-8.293,3.19C8.105,65.451,8.8,61,12.2,57.8a44.147,44.147,0,0,1,6.511-4.859c.394-.244.994-.6,1.707-1.032a1.951,1.951,0,0,1,.188-.113c.131-.075.281-.169.432-.263a11.968,11.968,0,0,1-2.852,11.764ZM38.35,49.578c-.957,2.345-2.983,8.368-4.2,8.03-1.051-.281-1.689-4.841-.206-9.344a20.857,20.857,0,0,1,3.283-6.023c1.52-1.689,3.171-2.251,3.584-1.557C41.3,41.585,38.95,48.114,38.35,49.578Zm16.642,7.955c-.413.206-.788.356-.957.244-.131-.075.169-.356.169-.356s2.083-2.233,2.908-3.265c.469-.6,1.032-1.295,1.632-2.083V52.3C58.745,55,56.155,56.8,54.992,57.533Zm12.833-2.927c-.3-.225-.263-.919.75-3.1a11.6,11.6,0,0,1,2.852-3.677,4.647,4.647,0,0,1,.281,1.614A5.28,5.28,0,0,1,67.826,54.606Z" transform="translate(0.116 -0.241)" fill="#cf649a"/>
</svg>
