<?xml version="1.0" encoding="UTF-8"?>
<svg id="Layer_2" data-name="Layer 2" xmlns="http://www.w3.org/2000/svg" viewBox="0 0 704.4 219.69">
  <g id="Layer_1-2" data-name="Layer 1">
    <g>
      <path d="m78.92,219.69c.08-.97-.31-1.81-.86-2.54-1.52-2.02-2.6-4.3-3.85-6.47-1.99-3.46-3.93-6.95-5.88-10.44-.83-1.5-1.6-3.03-2.43-4.52-.63-1.14-.66-2.27-.08-3.43,1.47-2.92,2.44-6.02,3.34-9.14.62-2.14,1.02-4.32,1.12-6.55.03-.57.11-1.13.17-1.7.04-.4.11-.8.09-1.19-.1-1.99-.27-3.97-.85-5.9-.93-3.06-2.78-5.45-5.29-7.4-2.2-1.71-4.68-2.91-7.29-3.8-3.09-1.05-6.24-1.96-9.39-2.84-4.97-1.4-9.99-2.63-14.93-4.12-4.07-1.22-7.99-2.87-11.78-4.8-2.62-1.33-5-3-7.25-4.88-2.17-1.81-4.03-3.9-5.73-6.12-.86-1.13-1.63-2.35-2.3-3.6-2.23-4.15-3.73-8.56-4.49-13.21-.53-3.26-.91-6.53-1.04-9.84-.04-1.02-.25-2.05-.2-3.06.12-2.5.38-4.99.5-7.49.11-2.22.43-4.42.79-6.61.52-3.2,1.03-6.4,1.69-9.58.77-3.68,1.61-7.34,2.59-10.97,1.28-4.73,2.65-9.43,4.13-14.1,1.65-5.21,3.48-10.37,5.21-15.56.81-2.44,1.54-4.92,1.76-7.47.28-3.23.45-6.49-.59-9.65-.05-.16-.09-.33-.15-.49-.32-.93-.09-1.65.72-2.24.74-.54,1.44-1.13,2.14-1.72,3.06-2.58,6.1-5.18,9.16-7.77,2.67-2.25,5.35-4.48,8.02-6.72.61-.52,1.17-1.09,1.78-1.61.86-.74,1.74-1.45,2.6-2.17.61.47.63,1.05.67,1.61.12,1.76.21,3.52.35,5.28.12,1.53.29,3.06.43,4.59.09,1.02.19,2.04.27,3.06.19,2.44.4,4.88.55,7.32.1,1.59.08,3.19.15,4.78.04.91.12,1.81.21,2.72.14,1.39.08,2.72-.88,3.93-2.91.26-5.04,2.05-7.12,3.83-4.49,3.85-7.52,8.72-9.8,14.08-1.45,3.42-2.45,6.99-3.19,10.62-.43,2.12-.91,4.23-1.21,6.37-.36,2.53-.58,5.09-.82,7.63-.23,2.49-.48,4.99-.56,7.49-.1,2.84-.25,5.69.11,8.53.04.34.06.68.08,1.02.14,2.33.2,4.67.43,6.99.29,2.94.64,5.89,1.43,8.75,1.12,4.07,3.26,7.5,6.72,10.07,2.07,1.54,4.18,3,6.57,4.05,2.61,1.15,5.33,1.77,8.17,1.87,1.32.05,2.64.05,3.96.07,1.91.02,3.77-.32,5.58-.92.98-.33,1.97-.62,2.93-1,2.7-1.07,5.07-2.68,7.15-4.67,2.75-2.63,4.55-5.86,5.55-9.5.99-3.63,1.69-7.32,2.18-11.05.31-2.37.62-4.74.93-7.11.03-.23.04-.45.06-.68.22-2.61.45-5.21.65-7.82.17-2.27.23-4.55.49-6.81.28-2.39.23-4.78.22-7.17-.01-2.96-.24-5.91-.56-8.85-.16-1.41-.29-2.83-.39-4.25-.2-2.91-.84-5.73-1.71-8.52-.5-1.59-1.19-3.08-2.05-4.5-.38-.63-.69-1.29-1-1.88.4-1.25,1.24-2.06,1.94-2.94,2.75-3.43,5.54-6.83,8.29-10.27.56-.71.99-1.52,1.48-2.29.33-.52.86-.66,1.3-.24.66.63,1.32,1.28,1.89,1.99,2.26,2.8,4.49,5.63,6.75,8.43.93,1.15,1.92,2.26,2.89,3.39.07.09.15.17.22.26.97,1.28,1.05,1.59.17,2.9-2.24,3.3-3.15,7.05-3.89,10.87-.46,2.35-.54,4.74-.76,7.12-.47,4.95-.19,9.91-.23,14.86-.02,1.87.25,3.74.4,5.61.19,2.27.39,4.53.6,6.8.17,1.81.37,3.62.56,5.43.13,1.24.27,2.49.42,3.73.37,3.11.58,6.24,1.15,9.31.92,4.9,2.92,9.31,6.54,12.93,2.44,2.44,5.27,4.21,8.42,5.52,1.81.75,3.73,1.16,5.69,1.25,1.49.07,2.99.03,4.48.08,4,.11,7.71-.99,11.3-2.64,3.25-1.49,5.89-3.75,8.15-6.46,1.48-1.77,2.52-3.82,3.12-6.05,1.16-4.3,1.93-8.66,1.85-13.14-.08-4.33-.04-8.66-.05-12.99,0-3.53-.33-7.04-.63-10.56-.32-3.75-.94-7.45-1.79-11.11-.98-4.28-2.27-8.48-4.22-12.44-.95-1.94-1.92-3.9-3.08-5.72-2.13-3.35-4.86-6.19-8.1-8.52-.84-.6-1.71-1.15-2.71-1.48-.54-.18-1.09-.38-1.6-.62-.78-.37-1.3-.96-1.3-1.86,0-1.37.02-2.73.07-4.1.04-.91.14-1.81.22-2.72.21-2.55.41-5.1.61-7.65.02-.23.04-.45.05-.68.14-2.27.26-4.55.44-6.81.19-2.44.43-4.87.65-7.31.05-.57.09-1.15.8-1.44.62.1,1.07.55,1.54.94,4.02,3.4,8.03,6.81,12.04,10.21,2.57,2.19,5.13,4.39,7.72,6.56.74.62,1.57,1.16,2.34,1.75.35.27.67.59.96.84.01,1.28-.34,2.36-.61,3.46-.37,1.5-.57,3.01-.61,4.56-.09,2.96.63,5.76,1.51,8.54.82,2.61,1.78,5.17,2.61,7.78,1.39,4.4,2.74,8.81,4.09,13.23,1.76,5.78,3.33,11.61,4.75,17.47.95,3.93,1.77,7.88,2.28,11.9.21,1.64.48,3.26.7,4.9.21,1.63.46,3.27.57,4.91.24,3.58.6,7.16.36,10.75-.12,1.76-.4,3.5-.54,5.26-.16,2.05-.63,4.04-1.03,6.05-.93,4.64-2.82,8.88-5.11,12.99-1.7,3.03-3.97,5.58-6.55,7.87-.98.87-2.05,1.68-3.18,2.33-3.63,2.1-7.41,3.87-11.33,5.38-5.53,2.12-11.28,3.51-16.99,5.03-3.49.93-6.95,1.97-10.42,3-2.65.79-5.17,1.94-7.55,3.32-3.65,2.12-6.27,5.12-7.37,9.28-.61,2.29-.69,4.62-.48,6.95.16,1.75.48,3.49.8,5.23.5,2.76,1.5,5.37,2.53,7.97.42,1.06.91,2.09,1.36,3.14.2.47.39.95.57,1.43.31.8.22,1.57-.19,2.31-1.91,3.44-3.82,6.88-5.74,10.32-.8,1.45-1.62,2.89-2.42,4.33-1.27,2.29-2.83,4.43-3.86,6.86-.36.84-.74,1.66-1.11,2.5h-1.72Z"/>
      <path d="m704.4,82.24c-5.97.03-11.94.06-17.99.08-.08.38-.21.7-.21,1.01,0,3.02-.13,6.05.08,9.05.21,2.96.2,5.92.21,8.88.02,12.19,0,24.38,0,36.58,0,.79-.1,1.59-.23,2.37-.06.37-.31.72-.48,1.11-.43.06-.82.14-1.21.17-.91.07-1.83.13-2.74.18-.34.02-.69.04-1.03,0-2.06-.25-4.12-.27-6.18,0-1.04.13-2.06-.04-3.02-.33-.63-.52-.67-1.21-.67-1.9,0-1.31-.01-2.62-.01-3.93,0-16.24.01-32.47.03-48.71,0-1.31.07-2.61.11-4.06-.26-.11-.6-.33-.97-.39-.51-.08-1.03-.06-1.55-.06-4.77,0-9.54.02-14.31.03-.62,0-1.27.11-1.84-.22-.55-.49-.46-1.15-.47-1.76-.02-1.31,0-2.62-.03-3.93-.04-1.25-.14-2.5-.2-3.75-.03-.75.06-1.48.48-2.26.31-.06.7-.18,1.08-.18,1.67-.02,3.33,0,5,0,12.75,0,25.51,0,38.26,0,2.64,0,5.28.06,7.9.39v11.63Z"/>
      <path d="m560.87,125.61c.22-1.72,0-3.4-.45-5.05-.38-1.39-.52-2.78-.59-4.21-.09-1.82-.34-3.62-.52-5.43-.14-1.47-.34-2.94-.38-4.42-.18-6.83-.63-13.66-.39-20.5.07-2.1.17-4.21.24-6.31.08-2.39-.02-4.78-.23-7.17-.05-.56,0-1.12,0-1.62.64-.61,1.32-.66,2.02-.67,1.49-.01,2.99-.02,4.48-.02,1.95,0,3.91,0,5.86,0,.57,0,1.16-.08,1.61.42.32,1.14.54,3.4.45,4.38-.07.79-.16,1.59-.16,2.38,0,19.83,0,39.66,0,59.49,0,1.03.01,2.05-.02,3.08-.01.45-.1.89-.16,1.41-.32.05-.59.13-.86.13-4.48,0-8.96-.02-13.45-.01-.57,0-1.14.08-1.71.13-.34.03-.69.07-1.03.08-1.51.02-2.67-.49-3.26-1.99-.6-1.54-1.26-3.06-1.89-4.59-1.52-3.75-3.05-7.5-4.55-11.26-3.2-7.99-6.42-15.97-9.58-23.98-1.51-3.82-2.91-7.67-4.37-11.51-.22-.58-.46-1.14-.95-1.64,0,.85,0,1.7,0,2.55.02,1.37,0,2.74.09,4.1.08,1.42.23,2.83.4,4.25.27,2.32.47,4.64.63,6.97.48,7.12.26,14.24.27,21.35.01,4.1.06,8.21.07,12.31,0,.74-.02,1.49-.17,2.2-.17.82-.7,1.13-1.5,1.12-2.07-.04-4.13-.07-6.2-.11-1.55-.02-3.1,0-4.65-.07-1.02-.04-1.33-.39-1.42-1.35-.04-.4-.03-.8-.03-1.2.02-15.67.04-31.34.05-47.01,0-5.93-.02-11.85-.04-17.78,0-.68-.02-1.37.03-2.05.09-1.27.58-1.72,1.83-1.78.11,0,.23,0,.34,0,4.83,0,9.65.03,14.48-.02,1.75-.02,2.88.2,3.86,2.68.92,2.33,1.78,4.69,2.72,7.01,1.48,3.65,3.04,7.26,4.49,10.91,1.75,4.4,3.4,8.83,5.15,13.23.86,2.17,1.85,4.29,2.75,6.45,1.2,2.89,2.33,5.82,3.57,8.7.92,2.14,1.97,4.23,2.97,6.35.02.04.1.04.2.08Z"/>
      <path d="m281.32,140.61c-.03-.57-.08-1.13-.08-1.69,0-19.82.03-39.64.03-59.46,0-1.82.03-3.64-.23-5.45-.18-1.24-.16-2.52.91-3.64.35-.04.79-.12,1.24-.12,6.43,0,12.87-.04,19.3.02,2.64.02,5.28.15,7.91.38,3.97.35,7.8,1.33,11.43,2.97,4.33,1.96,7.45,5.06,8.99,9.59.46,1.35.87,2.71,1.24,4.08.53,2.01.35,4.07.41,6.12.07,2.57-.67,4.94-1.75,7.23-1.36,2.87-3.46,5.09-6.18,6.71-1.48.88-3.02,1.63-4.54,2.45-.45.24-.89.48-1.26.68-.2.6-.02,1.02.19,1.43.44.86.86,1.74,1.36,2.57,2.89,4.72,5.78,9.43,8.83,14.06,2.29,3.48,4.34,7.11,6.49,10.67.32.53.65,1.06.98,1.6-.12.47-.53.56-.91.64-.28.06-.57.04-.86.04-4.02-.01-8.04-.03-12.06-.04-.34,0-.69,0-1.03-.01-1.19-.02-2.08-.56-2.71-1.55-.37-.58-.72-1.16-1.05-1.76-1.83-3.36-3.62-6.73-5.47-10.07-1.95-3.55-3.95-7.07-5.93-10.6-.64-1.14-1.27-2.29-1.88-3.41-1.74-.68-5.22-.88-7.85-.47-.41.42-.26.96-.26,1.46-.01,3.42,0,6.83,0,10.25,0,4.56,0,9.11,0,13.67,0,1.73.08,2.14-2.24,2.45-.34.05-.69.02-1.03.02-2.81,0-5.63.02-8.44-.01-.85-.01-1.71-.15-2.55-.3-.32-.05-.6-.28-.99-.47Zm15.42-37.72c.56.42,1.23.48,1.93.4.51-.06,1.02-.15,1.54-.18,2.35-.13,4.7-.26,7.05-.36,1.4-.06,2.73-.39,4.02-.88,1.25-.47,2.31-1.23,3.14-2.31.82-1.07,1.31-2.25,1.69-3.52.38-1.28.27-2.6.49-3.89.29-1.74-.03-3.41-.61-5.02-.39-1.07-.95-2.06-1.78-2.9-1.17-1.19-2.65-1.77-4.2-2.22-1.84-.54-3.75-.54-5.63-.67-2.23-.16-4.48-.08-6.72-.09-.32,0-.64.12-.93.17-.22,1.71-.2,20.05.02,21.46Z"/>
      <path d="m502.07,106.52c0,.17,0,.34,0,.51.19,6.26-1.33,12.21-3.73,17.92-1.88,4.46-4.66,8.36-8.55,11.39-.99.77-1.93,1.63-2.98,2.31-3.58,2.3-7.57,3.5-11.75,4.14-1.7.26-3.41.43-5.14.36-4.28-.18-8.43-.93-12.34-2.74-2.29-1.06-4.56-2.16-6.56-3.73-1.94-1.52-3.66-3.27-5.17-5.23-3.36-4.35-5.1-9.37-6.32-14.63-1.12-4.82-1.3-9.72-.96-14.6.38-5.35,1.54-10.57,3.71-15.54,1.88-4.32,4.67-7.96,8.25-11,2.56-2.17,5.5-3.71,8.68-4.78,2.89-.97,5.82-1.74,8.91-1.75.91,0,1.83-.26,2.74-.2,1.83.13,3.66.31,5.46.61,4.24.7,8.18,2.22,11.77,4.58,3.41,2.24,6.07,5.17,8.19,8.63,2.37,3.84,3.81,8.01,4.68,12.4.74,3.75,1.32,7.51,1.11,11.35Zm-16.34-.51c.03-2.56.06-5.11-.23-7.67-.31-2.72-.74-5.41-1.49-8.04-.8-2.8-2.21-5.25-4.41-7.2-1.3-1.16-2.77-2.08-4.49-2.42-1.28-.26-2.61-.38-3.93-.4-1.37-.02-2.75.12-4.12.27-2.47.27-4.63,1.27-6.45,2.95-1.66,1.54-2.83,3.42-3.68,5.51-1.34,3.31-1.86,6.79-2.12,10.32-.05.74-.02,1.48-.11,2.22-.5,4.1-.12,8.18.27,12.26.22,2.28.86,4.46,1.43,6.67.43,1.68,1.1,3.24,1.96,4.72,1.45,2.49,3.42,4.36,6.22,5.38,2.77,1.01,5.58,1.28,8.45.78,2.04-.36,4.01-.99,5.69-2.3,2.19-1.7,3.67-3.87,4.68-6.42,1.5-3.81,2.07-7.8,2.32-11.85.1-1.59.02-3.19.02-4.78Z"/>
      <path d="m233.21,82.66c-.8-.48-1.45-.36-2.07-.36-4.65-.01-9.31,0-13.96,0-.52,0-1.04.02-1.55-.02-1.04-.09-1.43-.49-1.52-1.49-.02-.17-.01-.34-.01-.51-.02-2.68-.04-5.35-.05-8.03,0-1.21.22-1.51,1.38-1.8.55-.14,1.13-.19,1.7-.2,1.49-.03,2.99-.01,4.48-.01,14.7,0,29.41.01,44.11.03.79,0,1.62-.13,2.39.43.33,1.07.15,2.2.03,3.32-.17,1.58-.37,3.16-.6,4.74-.12.84-.3,1.68-.53,2.5-.18.67-.68,1.04-1.39,1.07-.4.01-.8.02-1.21.02-4.48-.01-8.96-.03-13.44-.03-.68,0-1.38-.13-2.13.24-.06.33-.21.71-.2,1.08.04,2.16-.14,4.33.2,6.48.07.45.03.91.03,1.37,0,15.44,0,30.87,0,46.31,0,.85-.11,1.7-.26,2.54-.15.85-.51,1.13-1.39,1.25-.22.03-.46.03-.68.03-3.56-.03-7.12-.07-10.68-.11-.52,0-1.04.02-1.55-.02-.89-.07-1.2-.39-1.28-1.29-.03-.4-.01-.8-.01-1.2-.01-3.02.09-6.04-.06-9.06-.52-10.19-.13-20.38-.23-30.57-.02-2.44.19-4.89.26-7.33.05-1.71.02-3.42.06-5.13.02-.96.14-1.93.19-2.89.02-.44-.03-.89-.04-1.33Z"/>
      <path d="m397.92,82.76c-.33-.14-.67-.36-1.04-.42-.51-.08-1.03-.05-1.55-.05-4.71,0-9.42.01-14.13,0-.68,0-1.38.12-2.06-.2-.51-.45-.57-1.07-.57-1.7-.02-2.73-.05-5.47-.05-8.2,0-.62-.03-1.27.58-1.87.33-.03.78-.11,1.23-.11,15.28,0,30.56,0,45.84.02,1.09,0,2.17.16,3.26.21.63.03,1.26,0,1.89-.01.89-.03,1.29.28,1.37,1.13.02.23.02.46,0,.68-.27,1.97-.53,3.94-.82,5.91-.17,1.17-.19,2.38-.64,3.49-.93.67-1.97.65-3,.65-4.42,0-8.85-.01-13.27,0-.62,0-1.26-.13-1.98.27-.05.36-.16.8-.15,1.23.04,2.62-.17,5.24.19,7.85.05.34.02.68.02,1.02.03,15.21.07,30.42.1,45.63,0,.46,0,.91-.01,1.37-.02.58-.16,1.12-.62,1.67-.25.04-.58.13-.91.16-1.09.08-2.17.14-3.26.2-.23.01-.46.04-.69,0-2.34-.35-4.7-.13-7.05-.19-.52-.01-1.04,0-1.55-.05-.8-.08-1.13-.41-1.21-1.18-.04-.45-.03-.91-.03-1.37.01-17.6.02-35.2.04-52.8,0-1.02.05-2.04.09-3.33Z"/>
      <path d="m364.91,70.51c.46,1.04.59,1.94.59,2.86,0,1.65.03,3.3.03,4.96,0,18.97,0,37.94,0,56.91,0,1.31-.02,2.62-.03,3.93,0,.34,0,.69-.03,1.02-.11,1.06-.47,1.41-1.5,1.51-.29.03-.57.02-.86.02-3.39,0-6.78.01-10.17-.02-.8,0-1.6-.13-2.39-.27-.64-.11-.89-.42-.96-1.03-.04-.34-.03-.68-.03-1.02,0-20.62,0-41.25,0-61.87,0-1.48-.01-2.96-.02-4.44,0-.4-.01-.8.04-1.19.1-.83.57-1.36,1.39-1.53.39-.08.8-.1,1.2-.1,3.85.02,7.7.04,11.55.08.39,0,.77.12,1.19.19Z"/>
      <path d="m637.91,141.45c-3.76.52-7.55.18-11.33.25-1.08.02-2.16-.18-3.14-.26-.9-.82-.74-1.75-.69-2.65.04-.85.19-1.7.15-2.55-.43-9.33-.12-18.67-.18-28.01-.06-9.45-.02-18.91,0-28.36,0-.85.1-1.7.14-2.55.02-.4,0-.79-.01-1.19-.04-1.19-.15-2.39-.12-3.58.04-1.66.68-2.31,2.32-2.3,3.56.01,7.11.11,10.67.16.45,0,.91-.06,1.37-.07.69,0,1.07.25,1.27.91.13.43.2.89.23,1.34.04.62.03,1.25.03,1.88,0,21.3,0,42.6,0,63.89,0,.57,0,1.14-.03,1.71-.02.47-.15.89-.68,1.38Z"/>
    </g>
  </g>
</svg>