<svg id="Group_18" data-name="Group 18" xmlns="http://www.w3.org/2000/svg" width="88.84" height="88.837" viewBox="0 0 88.84 88.837">
  <path id="Path_9" data-name="Path 9" d="M8.708,55.38A38.112,38.112,0,0,0,30.184,89.674l-18.177-49.8a37.96,37.96,0,0,0-3.3,15.508Z" transform="translate(-2.394 -10.962)" fill="#207196"/>
  <path id="Path_10" data-name="Path 10" d="M74.914,44.889A20.062,20.062,0,0,0,71.771,34.38c-1.932-3.139-3.742-5.8-3.742-8.936a6.6,6.6,0,0,1,6.4-6.763c.169,0,.329.021.494.03a38.1,38.1,0,0,0-57.569,7.172c.894.027,1.737.046,2.452.046,3.986,0,10.155-.484,10.155-.484a1.574,1.574,0,0,1,.244,3.139s-2.064.243-4.361.363L39.719,70.222l8.339-25.01L42.121,28.946c-2.052-.12-4-.363-4-.363a1.574,1.574,0,0,1,.241-3.139s6.293.484,10.037.484c3.985,0,10.155-.484,10.155-.484a1.574,1.574,0,0,1,.244,3.139s-2.069.243-4.361.363l13.77,40.962,3.8-12.7c1.647-5.271,2.9-9.056,2.9-12.318Z" transform="translate(-4.771 -2.394)" fill="#207196"/>
  <path id="Path_11" data-name="Path 11" d="M57.849,65.857,46.416,99.079a38.123,38.123,0,0,0,23.418-.608,3.347,3.347,0,0,1-.271-.525Z" transform="translate(-12.761 -18.106)" fill="#207196"/>
  <path id="Path_12" data-name="Path 12" d="M101.961,36.046a29.238,29.238,0,0,1,.257,3.918,35.945,35.945,0,0,1-2.9,13.649L87.681,87.265a38.112,38.112,0,0,0,14.28-51.219Z" transform="translate(-24.107 -9.91)" fill="#207196"/>
  <path id="Path_13" data-name="Path 13" d="M44.419,0A44.419,44.419,0,1,0,88.84,44.417,44.469,44.469,0,0,0,44.419,0Zm0,86.8A42.382,42.382,0,1,1,86.8,44.417,42.432,42.432,0,0,1,44.419,86.8Z" transform="translate(0 0)" fill="#207196"/>
</svg>
